<svg width="246" height="504" viewBox="0 0 246 504" fill="none" xmlns="http://www.w3.org/2000/svg">
<path d="M565.77 98.2326C694.878 227.341 694.878 436.667 565.77 565.775C436.662 694.884 227.336 694.884 98.2275 565.775C-30.8809 436.667 -30.8808 227.341 98.2275 98.2324C227.336 -30.8759 436.662 -30.8758 565.77 98.2326Z" stroke="#FFFFC8"/>
<path d="M565.77 98.2326C694.878 227.341 694.878 436.667 565.77 565.775C436.662 694.884 227.336 694.884 98.2275 565.775C-30.8809 436.667 -30.8808 227.341 98.2275 98.2324C227.336 -30.8759 436.662 -30.8758 565.77 98.2326Z" stroke="#FFFFC8" stroke-opacity="0.8"/>
<path d="M565.77 98.2326C694.878 227.341 694.878 436.667 565.77 565.775C436.662 694.884 227.336 694.884 98.2275 565.775C-30.8809 436.667 -30.8808 227.341 98.2275 98.2324C227.336 -30.8759 436.662 -30.8758 565.77 98.2326Z" stroke="url(#paint0_radial)"/>
<path d="M565.77 98.2326C694.878 227.341 694.878 436.667 565.77 565.775C436.662 694.884 227.336 694.884 98.2275 565.775C-30.8809 436.667 -30.8808 227.341 98.2275 98.2324C227.336 -30.8759 436.662 -30.8758 565.77 98.2326Z" stroke="url(#paint1_radial)"/>
<path d="M565.77 98.2326C694.878 227.341 694.878 436.667 565.77 565.775C436.662 694.884 227.336 694.884 98.2275 565.775C-30.8809 436.667 -30.8808 227.341 98.2275 98.2324C227.336 -30.8759 436.662 -30.8758 565.77 98.2326Z" stroke="url(#paint2_radial)"/>
<path d="M549.268 114.733C669.263 234.728 669.263 429.279 549.268 549.275C429.272 669.27 234.721 669.27 114.725 549.275C-5.27017 429.279 -5.27012 234.728 114.725 114.733C234.721 -5.26264 429.272 -5.26256 549.268 114.733Z" stroke="#FFFFC8"/>
<path d="M549.268 114.733C669.263 234.728 669.263 429.279 549.268 549.275C429.272 669.27 234.721 669.27 114.725 549.275C-5.27017 429.279 -5.27012 234.728 114.725 114.733C234.721 -5.26264 429.272 -5.26256 549.268 114.733Z" stroke="#FFFFC8" stroke-opacity="0.8"/>
<path d="M549.268 114.733C669.263 234.728 669.263 429.279 549.268 549.275C429.272 669.27 234.721 669.27 114.725 549.275C-5.27017 429.279 -5.27012 234.728 114.725 114.733C234.721 -5.26264 429.272 -5.26256 549.268 114.733Z" stroke="url(#paint3_radial)"/>
<path d="M549.268 114.733C669.263 234.728 669.263 429.279 549.268 549.275C429.272 669.27 234.721 669.27 114.725 549.275C-5.27017 429.279 -5.27012 234.728 114.725 114.733C234.721 -5.26264 429.272 -5.26256 549.268 114.733Z" stroke="url(#paint4_radial)"/>
<path d="M549.268 114.733C669.263 234.728 669.263 429.279 549.268 549.275C429.272 669.27 234.721 669.27 114.725 549.275C-5.27017 429.279 -5.27012 234.728 114.725 114.733C234.721 -5.26264 429.272 -5.26256 549.268 114.733Z" stroke="url(#paint5_radial)"/>
<path d="M615.948 331.986C615.948 488.8 488.826 615.922 332.012 615.922C175.199 615.922 48.0762 488.8 48.0762 331.986C48.0762 175.173 175.199 48.0508 332.012 48.0508C488.826 48.0508 615.948 175.173 615.948 331.986Z" stroke="#FFFFC8"/>
<path d="M615.948 331.986C615.948 488.8 488.826 615.922 332.012 615.922C175.199 615.922 48.0762 488.8 48.0762 331.986C48.0762 175.173 175.199 48.0508 332.012 48.0508C488.826 48.0508 615.948 175.173 615.948 331.986Z" stroke="#FFFFC8" stroke-opacity="0.8"/>
<path d="M615.948 331.986C615.948 488.8 488.826 615.922 332.012 615.922C175.199 615.922 48.0762 488.8 48.0762 331.986C48.0762 175.173 175.199 48.0508 332.012 48.0508C488.826 48.0508 615.948 175.173 615.948 331.986Z" stroke="url(#paint6_radial)"/>
<path d="M615.948 331.986C615.948 488.8 488.826 615.922 332.012 615.922C175.199 615.922 48.0762 488.8 48.0762 331.986C48.0762 175.173 175.199 48.0508 332.012 48.0508C488.826 48.0508 615.948 175.173 615.948 331.986Z" stroke="url(#paint7_radial)"/>
<path d="M615.948 331.986C615.948 488.8 488.826 615.922 332.012 615.922C175.199 615.922 48.0762 488.8 48.0762 331.986C48.0762 175.173 175.199 48.0508 332.012 48.0508C488.826 48.0508 615.948 175.173 615.948 331.986Z" stroke="url(#paint8_radial)"/>
<path d="M592.648 331.996C592.648 475.942 475.957 592.633 332.012 592.633C188.066 592.633 71.375 475.942 71.375 331.996C71.375 188.05 188.066 71.3594 332.012 71.3594C475.957 71.3594 592.648 188.05 592.648 331.996Z" stroke="#FFFFC8"/>
<path d="M592.648 331.996C592.648 475.942 475.957 592.633 332.012 592.633C188.066 592.633 71.375 475.942 71.375 331.996C71.375 188.05 188.066 71.3594 332.012 71.3594C475.957 71.3594 592.648 188.05 592.648 331.996Z" stroke="#FFFFC8" stroke-opacity="0.8"/>
<path d="M592.648 331.996C592.648 475.942 475.957 592.633 332.012 592.633C188.066 592.633 71.375 475.942 71.375 331.996C71.375 188.05 188.066 71.3594 332.012 71.3594C475.957 71.3594 592.648 188.05 592.648 331.996Z" stroke="url(#paint9_radial)"/>
<path d="M592.648 331.996C592.648 475.942 475.957 592.633 332.012 592.633C188.066 592.633 71.375 475.942 71.375 331.996C71.375 188.05 188.066 71.3594 332.012 71.3594C475.957 71.3594 592.648 188.05 592.648 331.996Z" stroke="url(#paint10_radial)"/>
<path d="M592.648 331.996C592.648 475.942 475.957 592.633 332.012 592.633C188.066 592.633 71.375 475.942 71.375 331.996C71.375 188.05 188.066 71.3594 332.012 71.3594C475.957 71.3594 592.648 188.05 592.648 331.996Z" stroke="url(#paint11_radial)"/>
<path d="M569.313 331.997C569.313 463.055 463.07 569.298 332.012 569.298C200.953 569.298 94.71 463.055 94.71 331.997C94.71 200.939 200.953 94.6953 332.012 94.6953C463.07 94.6953 569.313 200.939 569.313 331.997Z" stroke="#FFFFC8"/>
<path d="M569.313 331.997C569.313 463.055 463.07 569.298 332.012 569.298C200.953 569.298 94.71 463.055 94.71 331.997C94.71 200.939 200.953 94.6953 332.012 94.6953C463.07 94.6953 569.313 200.939 569.313 331.997Z" stroke="#FFFFC8" stroke-opacity="0.8"/>
<path d="M569.313 331.997C569.313 463.055 463.07 569.298 332.012 569.298C200.953 569.298 94.71 463.055 94.71 331.997C94.71 200.939 200.953 94.6953 332.012 94.6953C463.07 94.6953 569.313 200.939 569.313 331.997Z" stroke="url(#paint12_radial)"/>
<path d="M569.313 331.997C569.313 463.055 463.07 569.298 332.012 569.298C200.953 569.298 94.71 463.055 94.71 331.997C94.71 200.939 200.953 94.6953 332.012 94.6953C463.07 94.6953 569.313 200.939 569.313 331.997Z" stroke="url(#paint13_radial)"/>
<path d="M569.313 331.997C569.313 463.055 463.07 569.298 332.012 569.298C200.953 569.298 94.71 463.055 94.71 331.997C94.71 200.939 200.953 94.6953 332.012 94.6953C463.07 94.6953 569.313 200.939 569.313 331.997Z" stroke="url(#paint14_radial)"/>
<path d="M545.978 331.998C545.978 450.169 450.182 545.965 332.012 545.965C213.841 545.965 118.045 450.169 118.045 331.998C118.045 213.827 213.841 118.031 332.012 118.031C450.182 118.031 545.978 213.827 545.978 331.998Z" stroke="#FFFFC8"/>
<path d="M545.978 331.998C545.978 450.169 450.182 545.965 332.012 545.965C213.841 545.965 118.045 450.169 118.045 331.998C118.045 213.827 213.841 118.031 332.012 118.031C450.182 118.031 545.978 213.827 545.978 331.998Z" stroke="#FFFFC8" stroke-opacity="0.8"/>
<path d="M545.978 331.998C545.978 450.169 450.182 545.965 332.012 545.965C213.841 545.965 118.045 450.169 118.045 331.998C118.045 213.827 213.841 118.031 332.012 118.031C450.182 118.031 545.978 213.827 545.978 331.998Z" stroke="url(#paint15_radial)"/>
<path d="M545.978 331.998C545.978 450.169 450.182 545.965 332.012 545.965C213.841 545.965 118.045 450.169 118.045 331.998C118.045 213.827 213.841 118.031 332.012 118.031C450.182 118.031 545.978 213.827 545.978 331.998Z" stroke="url(#paint16_radial)"/>
<path d="M545.978 331.998C545.978 450.169 450.182 545.965 332.012 545.965C213.841 545.965 118.045 450.169 118.045 331.998C118.045 213.827 213.841 118.031 332.012 118.031C450.182 118.031 545.978 213.827 545.978 331.998Z" stroke="url(#paint17_radial)"/>
<path d="M522.643 331.995C522.643 437.278 437.294 522.627 332.011 522.627C226.729 522.627 141.38 437.278 141.38 331.995C141.38 226.712 226.729 141.363 332.011 141.363C437.294 141.363 522.643 226.712 522.643 331.995Z" stroke="#FFFFC8"/>
<path d="M522.643 331.995C522.643 437.278 437.294 522.627 332.011 522.627C226.729 522.627 141.38 437.278 141.38 331.995C141.38 226.712 226.729 141.363 332.011 141.363C437.294 141.363 522.643 226.712 522.643 331.995Z" stroke="#FFFFC8" stroke-opacity="0.8"/>
<path d="M522.643 331.995C522.643 437.278 437.294 522.627 332.011 522.627C226.729 522.627 141.38 437.278 141.38 331.995C141.38 226.712 226.729 141.363 332.011 141.363C437.294 141.363 522.643 226.712 522.643 331.995Z" stroke="url(#paint18_radial)"/>
<path d="M522.643 331.995C522.643 437.278 437.294 522.627 332.011 522.627C226.729 522.627 141.38 437.278 141.38 331.995C141.38 226.712 226.729 141.363 332.011 141.363C437.294 141.363 522.643 226.712 522.643 331.995Z" stroke="url(#paint19_radial)"/>
<path d="M522.643 331.995C522.643 437.278 437.294 522.627 332.011 522.627C226.729 522.627 141.38 437.278 141.38 331.995C141.38 226.712 226.729 141.363 332.011 141.363C437.294 141.363 522.643 226.712 522.643 331.995Z" stroke="url(#paint20_radial)"/>
<path d="M499.309 331.996C499.309 424.391 424.408 499.292 332.012 499.292C239.617 499.292 164.716 424.391 164.716 331.996C164.716 239.601 239.617 164.699 332.012 164.699C424.408 164.699 499.309 239.601 499.309 331.996Z" stroke="#FFFFC8"/>
<path d="M499.309 331.996C499.309 424.391 424.408 499.292 332.012 499.292C239.617 499.292 164.716 424.391 164.716 331.996C164.716 239.601 239.617 164.699 332.012 164.699C424.408 164.699 499.309 239.601 499.309 331.996Z" stroke="#FFFFC8" stroke-opacity="0.8"/>
<path d="M499.309 331.996C499.309 424.391 424.408 499.292 332.012 499.292C239.617 499.292 164.716 424.391 164.716 331.996C164.716 239.601 239.617 164.699 332.012 164.699C424.408 164.699 499.309 239.601 499.309 331.996Z" stroke="url(#paint21_radial)"/>
<path d="M499.309 331.996C499.309 424.391 424.408 499.292 332.012 499.292C239.617 499.292 164.716 424.391 164.716 331.996C164.716 239.601 239.617 164.699 332.012 164.699C424.408 164.699 499.309 239.601 499.309 331.996Z" stroke="url(#paint22_radial)"/>
<path d="M499.309 331.996C499.309 424.391 424.408 499.292 332.012 499.292C239.617 499.292 164.716 424.391 164.716 331.996C164.716 239.601 239.617 164.699 332.012 164.699C424.408 164.699 499.309 239.601 499.309 331.996Z" stroke="url(#paint23_radial)"/>
<path d="M475.973 331.997C475.973 411.505 411.519 475.959 332.011 475.959C252.504 475.959 188.05 411.505 188.05 331.997C188.05 252.489 252.504 188.035 332.011 188.035C411.519 188.035 475.973 252.489 475.973 331.997Z" stroke="#FFFFC8"/>
<path d="M475.973 331.997C475.973 411.505 411.519 475.959 332.011 475.959C252.504 475.959 188.05 411.505 188.05 331.997C188.05 252.489 252.504 188.035 332.011 188.035C411.519 188.035 475.973 252.489 475.973 331.997Z" stroke="#FFFFC8" stroke-opacity="0.8"/>
<path d="M475.973 331.997C475.973 411.505 411.519 475.959 332.011 475.959C252.504 475.959 188.05 411.505 188.05 331.997C188.05 252.489 252.504 188.035 332.011 188.035C411.519 188.035 475.973 252.489 475.973 331.997Z" stroke="url(#paint24_radial)"/>
<path d="M475.973 331.997C475.973 411.505 411.519 475.959 332.011 475.959C252.504 475.959 188.05 411.505 188.05 331.997C188.05 252.489 252.504 188.035 332.011 188.035C411.519 188.035 475.973 252.489 475.973 331.997Z" stroke="url(#paint25_radial)"/>
<path d="M475.973 331.997C475.973 411.505 411.519 475.959 332.011 475.959C252.504 475.959 188.05 411.505 188.05 331.997C188.05 252.489 252.504 188.035 332.011 188.035C411.519 188.035 475.973 252.489 475.973 331.997Z" stroke="url(#paint26_radial)"/>
<path d="M452.638 331.998C452.638 398.618 398.632 452.624 332.011 452.624C265.391 452.624 211.385 398.618 211.385 331.998C211.385 265.378 265.391 211.371 332.011 211.371C398.632 211.371 452.638 265.378 452.638 331.998Z" stroke="#FFFFC8"/>
<path d="M452.638 331.998C452.638 398.618 398.632 452.624 332.011 452.624C265.391 452.624 211.385 398.618 211.385 331.998C211.385 265.378 265.391 211.371 332.011 211.371C398.632 211.371 452.638 265.378 452.638 331.998Z" stroke="#FFFFC8" stroke-opacity="0.8"/>
<path d="M452.638 331.998C452.638 398.618 398.632 452.624 332.011 452.624C265.391 452.624 211.385 398.618 211.385 331.998C211.385 265.378 265.391 211.371 332.011 211.371C398.632 211.371 452.638 265.378 452.638 331.998Z" stroke="url(#paint27_radial)"/>
<path d="M452.638 331.998C452.638 398.618 398.632 452.624 332.011 452.624C265.391 452.624 211.385 398.618 211.385 331.998C211.385 265.378 265.391 211.371 332.011 211.371C398.632 211.371 452.638 265.378 452.638 331.998Z" stroke="url(#paint28_radial)"/>
<path d="M452.638 331.998C452.638 398.618 398.632 452.624 332.011 452.624C265.391 452.624 211.385 398.618 211.385 331.998C211.385 265.378 265.391 211.371 332.011 211.371C398.632 211.371 452.638 265.378 452.638 331.998Z" stroke="url(#paint29_radial)"/>
<path d="M429.303 331.999C429.303 385.731 385.744 429.29 332.011 429.29C278.279 429.29 234.72 385.731 234.72 331.999C234.72 278.266 278.279 234.707 332.011 234.707C385.744 234.707 429.303 278.266 429.303 331.999Z" stroke="#FFFFC8"/>
<path d="M429.303 331.999C429.303 385.731 385.744 429.29 332.011 429.29C278.279 429.29 234.72 385.731 234.72 331.999C234.72 278.266 278.279 234.707 332.011 234.707C385.744 234.707 429.303 278.266 429.303 331.999Z" stroke="#FFFFC8" stroke-opacity="0.8"/>
<path d="M429.303 331.999C429.303 385.731 385.744 429.29 332.011 429.29C278.279 429.29 234.72 385.731 234.72 331.999C234.72 278.266 278.279 234.707 332.011 234.707C385.744 234.707 429.303 278.266 429.303 331.999Z" stroke="url(#paint30_radial)"/>
<path d="M429.303 331.999C429.303 385.731 385.744 429.29 332.011 429.29C278.279 429.29 234.72 385.731 234.72 331.999C234.72 278.266 278.279 234.707 332.011 234.707C385.744 234.707 429.303 278.266 429.303 331.999Z" stroke="url(#paint31_radial)"/>
<path d="M429.303 331.999C429.303 385.731 385.744 429.29 332.011 429.29C278.279 429.29 234.72 385.731 234.72 331.999C234.72 278.266 278.279 234.707 332.011 234.707C385.744 234.707 429.303 278.266 429.303 331.999Z" stroke="url(#paint32_radial)"/>
<defs>
<radialGradient id="paint0_radial" cx="0" cy="0" r="1" gradientUnits="userSpaceOnUse" gradientTransform="translate(342.918 -70.2385) rotate(84.7749) scale(498.505 941.757)">
<stop stop-color="#2BD4DB"/>
<stop offset="1" stop-color="#2BD4DB" stop-opacity="0"/>
</radialGradient>
<radialGradient id="paint1_radial" cx="0" cy="0" r="1" gradientUnits="userSpaceOnUse" gradientTransform="translate(118.384 204.465) rotate(19.2504) scale(834.989 2605.45)">
<stop stop-color="#2BD4DB"/>
<stop offset="1" stop-color="#2BD4DB" stop-opacity="0"/>
</radialGradient>
<radialGradient id="paint2_radial" cx="0" cy="0" r="1" gradientUnits="userSpaceOnUse" gradientTransform="translate(219.973 664.328) rotate(-24.3006) scale(720.069 4916.38)">
<stop stop-color="#2BD4DB" stop-opacity="0.5"/>
<stop offset="1" stop-color="#2BD4DB" stop-opacity="0"/>
</radialGradient>
<radialGradient id="paint3_radial" cx="0" cy="0" r="1" gradientUnits="userSpaceOnUse" gradientTransform="translate(342.146 -41.8897) rotate(84.7749) scale(463.372 875.386)">
<stop stop-color="#2BD4DB"/>
<stop offset="1" stop-color="#2BD4DB" stop-opacity="0"/>
</radialGradient>
<radialGradient id="paint4_radial" cx="0" cy="0" r="1" gradientUnits="userSpaceOnUse" gradientTransform="translate(133.437 213.453) rotate(19.2504) scale(776.143 2421.82)">
<stop stop-color="#2BD4DB"/>
<stop offset="1" stop-color="#2BD4DB" stop-opacity="0"/>
</radialGradient>
<radialGradient id="paint5_radial" cx="0" cy="0" r="1" gradientUnits="userSpaceOnUse" gradientTransform="translate(227.866 640.907) rotate(-24.3006) scale(669.321 4569.89)">
<stop stop-color="#2BD4DB" stop-opacity="0.5"/>
<stop offset="1" stop-color="#2BD4DB" stop-opacity="0"/>
</radialGradient>
<radialGradient id="paint6_radial" cx="0" cy="0" r="1" gradientUnits="userSpaceOnUse" gradientTransform="translate(582.985 94.2795) rotate(129.775) scale(428.244 809.023)">
<stop stop-color="#2BD4DB"/>
<stop offset="1" stop-color="#2BD4DB" stop-opacity="0"/>
</radialGradient>
<radialGradient id="paint7_radial" cx="0" cy="0" r="1" gradientUnits="userSpaceOnUse" gradientTransform="translate(279.726 124.755) rotate(64.2504) scale(717.303 2238.23)">
<stop stop-color="#2BD4DB"/>
<stop offset="1" stop-color="#2BD4DB" stop-opacity="0"/>
</radialGradient>
<radialGradient id="paint8_radial" cx="0" cy="0" r="1" gradientUnits="userSpaceOnUse" gradientTransform="translate(62.0942 465.806) rotate(20.6994) scale(618.58 4223.44)">
<stop stop-color="#2BD4DB" stop-opacity="0.5"/>
<stop offset="1" stop-color="#2BD4DB" stop-opacity="0"/>
</radialGradient>
<radialGradient id="paint9_radial" cx="0" cy="0" r="1" gradientUnits="userSpaceOnUse" gradientTransform="translate(562.426 113.76) rotate(129.775) scale(393.165 742.753)">
<stop stop-color="#2BD4DB"/>
<stop offset="1" stop-color="#2BD4DB" stop-opacity="0"/>
</radialGradient>
<radialGradient id="paint10_radial" cx="0" cy="0" r="1" gradientUnits="userSpaceOnUse" gradientTransform="translate(284.008 141.739) rotate(64.2504) scale(658.546 2054.88)">
<stop stop-color="#2BD4DB"/>
<stop offset="1" stop-color="#2BD4DB" stop-opacity="0"/>
</radialGradient>
<radialGradient id="paint11_radial" cx="0" cy="0" r="1" gradientUnits="userSpaceOnUse" gradientTransform="translate(84.2038 454.854) rotate(20.6994) scale(567.909 3877.49)">
<stop stop-color="#2BD4DB" stop-opacity="0.5"/>
<stop offset="1" stop-color="#2BD4DB" stop-opacity="0"/>
</radialGradient>
<radialGradient id="paint12_radial" cx="0" cy="0" r="1" gradientUnits="userSpaceOnUse" gradientTransform="translate(541.836 133.263) rotate(129.775) scale(358.032 676.381)">
<stop stop-color="#2BD4DB"/>
<stop offset="1" stop-color="#2BD4DB" stop-opacity="0"/>
</radialGradient>
<radialGradient id="paint13_radial" cx="0" cy="0" r="1" gradientUnits="userSpaceOnUse" gradientTransform="translate(288.298 158.741) rotate(64.2504) scale(599.699 1871.26)">
<stop stop-color="#2BD4DB"/>
<stop offset="1" stop-color="#2BD4DB" stop-opacity="0"/>
</radialGradient>
<radialGradient id="paint14_radial" cx="0" cy="0" r="1" gradientUnits="userSpaceOnUse" gradientTransform="translate(106.348 443.876) rotate(20.6994) scale(517.161 3531)">
<stop stop-color="#2BD4DB" stop-opacity="0.5"/>
<stop offset="1" stop-color="#2BD4DB" stop-opacity="0"/>
</radialGradient>
<radialGradient id="paint15_radial" cx="0" cy="0" r="1" gradientUnits="userSpaceOnUse" gradientTransform="translate(521.247 152.765) rotate(129.775) scale(322.899 610.009)">
<stop stop-color="#2BD4DB"/>
<stop offset="1" stop-color="#2BD4DB" stop-opacity="0"/>
</radialGradient>
<radialGradient id="paint16_radial" cx="0" cy="0" r="1" gradientUnits="userSpaceOnUse" gradientTransform="translate(292.587 175.744) rotate(64.2504) scale(540.852 1687.64)">
<stop stop-color="#2BD4DB"/>
<stop offset="1" stop-color="#2BD4DB" stop-opacity="0"/>
</radialGradient>
<radialGradient id="paint17_radial" cx="0" cy="0" r="1" gradientUnits="userSpaceOnUse" gradientTransform="translate(128.492 432.899) rotate(20.6994) scale(466.413 3184.51)">
<stop stop-color="#2BD4DB" stop-opacity="0.5"/>
<stop offset="1" stop-color="#2BD4DB" stop-opacity="0"/>
</radialGradient>
<radialGradient id="paint18_radial" cx="0" cy="0" r="1" gradientUnits="userSpaceOnUse" gradientTransform="translate(500.657 172.264) rotate(129.775) scale(287.766 543.637)">
<stop stop-color="#2BD4DB"/>
<stop offset="1" stop-color="#2BD4DB" stop-opacity="0"/>
</radialGradient>
<radialGradient id="paint19_radial" cx="0" cy="0" r="1" gradientUnits="userSpaceOnUse" gradientTransform="translate(296.877 192.742) rotate(64.2504) scale(482.004 1504.02)">
<stop stop-color="#2BD4DB"/>
<stop offset="1" stop-color="#2BD4DB" stop-opacity="0"/>
</radialGradient>
<radialGradient id="paint20_radial" cx="0" cy="0" r="1" gradientUnits="userSpaceOnUse" gradientTransform="translate(150.636 421.917) rotate(20.6994) scale(415.665 2838.02)">
<stop stop-color="#2BD4DB" stop-opacity="0.5"/>
<stop offset="1" stop-color="#2BD4DB" stop-opacity="0"/>
</radialGradient>
<radialGradient id="paint21_radial" cx="0" cy="0" r="1" gradientUnits="userSpaceOnUse" gradientTransform="translate(480.068 191.766) rotate(129.775) scale(252.633 477.265)">
<stop stop-color="#2BD4DB"/>
<stop offset="1" stop-color="#2BD4DB" stop-opacity="0"/>
</radialGradient>
<radialGradient id="paint22_radial" cx="0" cy="0" r="1" gradientUnits="userSpaceOnUse" gradientTransform="translate(301.167 209.744) rotate(64.2504) scale(423.157 1320.39)">
<stop stop-color="#2BD4DB"/>
<stop offset="1" stop-color="#2BD4DB" stop-opacity="0"/>
</radialGradient>
<radialGradient id="paint23_radial" cx="0" cy="0" r="1" gradientUnits="userSpaceOnUse" gradientTransform="translate(172.78 410.94) rotate(20.6994) scale(364.917 2491.53)">
<stop stop-color="#2BD4DB" stop-opacity="0.5"/>
<stop offset="1" stop-color="#2BD4DB" stop-opacity="0"/>
</radialGradient>
<radialGradient id="paint24_radial" cx="0" cy="0" r="1" gradientUnits="userSpaceOnUse" gradientTransform="translate(459.477 211.268) rotate(129.775) scale(217.5 410.893)">
<stop stop-color="#2BD4DB"/>
<stop offset="1" stop-color="#2BD4DB" stop-opacity="0"/>
</radialGradient>
<radialGradient id="paint25_radial" cx="0" cy="0" r="1" gradientUnits="userSpaceOnUse" gradientTransform="translate(305.456 226.746) rotate(64.2504) scale(364.31 1136.77)">
<stop stop-color="#2BD4DB"/>
<stop offset="1" stop-color="#2BD4DB" stop-opacity="0"/>
</radialGradient>
<radialGradient id="paint26_radial" cx="0" cy="0" r="1" gradientUnits="userSpaceOnUse" gradientTransform="translate(194.923 399.962) rotate(20.6994) scale(314.169 2145.04)">
<stop stop-color="#2BD4DB" stop-opacity="0.5"/>
<stop offset="1" stop-color="#2BD4DB" stop-opacity="0"/>
</radialGradient>
<radialGradient id="paint27_radial" cx="0" cy="0" r="1" gradientUnits="userSpaceOnUse" gradientTransform="translate(438.888 230.77) rotate(129.775) scale(182.367 344.521)">
<stop stop-color="#2BD4DB"/>
<stop offset="1" stop-color="#2BD4DB" stop-opacity="0"/>
</radialGradient>
<radialGradient id="paint28_radial" cx="0" cy="0" r="1" gradientUnits="userSpaceOnUse" gradientTransform="translate(309.745 243.748) rotate(64.2504) scale(305.462 953.146)">
<stop stop-color="#2BD4DB"/>
<stop offset="1" stop-color="#2BD4DB" stop-opacity="0"/>
</radialGradient>
<radialGradient id="paint29_radial" cx="0" cy="0" r="1" gradientUnits="userSpaceOnUse" gradientTransform="translate(217.067 388.984) rotate(20.6994) scale(263.421 1798.55)">
<stop stop-color="#2BD4DB" stop-opacity="0.5"/>
<stop offset="1" stop-color="#2BD4DB" stop-opacity="0"/>
</radialGradient>
<radialGradient id="paint30_radial" cx="0" cy="0" r="1" gradientUnits="userSpaceOnUse" gradientTransform="translate(418.298 250.273) rotate(129.775) scale(147.234 278.149)">
<stop stop-color="#2BD4DB"/>
<stop offset="1" stop-color="#2BD4DB" stop-opacity="0"/>
</radialGradient>
<radialGradient id="paint31_radial" cx="0" cy="0" r="1" gradientUnits="userSpaceOnUse" gradientTransform="translate(314.035 260.75) rotate(64.2504) scale(246.615 769.522)">
<stop stop-color="#2BD4DB"/>
<stop offset="1" stop-color="#2BD4DB" stop-opacity="0"/>
</radialGradient>
<radialGradient id="paint32_radial" cx="0" cy="0" r="1" gradientUnits="userSpaceOnUse" gradientTransform="translate(239.211 378.007) rotate(20.6994) scale(212.673 1452.06)">
<stop stop-color="#2BD4DB" stop-opacity="0.5"/>
<stop offset="1" stop-color="#2BD4DB" stop-opacity="0"/>
</radialGradient>
</defs>
</svg>